#!OML:ASF H:\Terrain\Patient Classification 1\Walking\liu\liu.ASF
:FULLY-SPECIFIED
:DEGREES
336
root 9.02822 17.204 17.1053 6.41098 -2.03993 -5.38025
lowerback -4.76464 1.35233 2.16056
upperback 0.726905 1.5613 3.38788
thorax 3.3871 0.78575 2.40412
lowerneck -19.724 -4.64755 -13.0933
upperneck 20.996 -5.80999 13.3467
head 10.8229 -2.1687 6.20178
rclavicle -4.47266e-015 -1.35174e-014
rhumerus -24.282 20.408 -83.7325
rradius 43.4621
rwrist -18.8318
rhand -30.1569 -22.9329
rfingers 7.12502
rthumb -3.46899 -52.8844
lclavicle -4.47266e-015 -1.35174e-014
lhumerus -45.7144 -0.850887 84.205
lradius 20.8473
lwrist -2.44017
lhand -10.0527 -24.207
lfingers 7.12502
lthumb 15.9329 5.15763
rfemur 0.231615 2.44463 31.5798
rtibia 14.5146
rfoot -15.6207 1.70621
rtoes -17.1107
lfemur -37.55 6.8684 -15.6531
ltibia 29.9345
lfoot -10.31 9.70084
ltoes -11.6037
337
root 9.03277 17.2139 17.248 6.30141 -2.21353 -5.63086
lowerback -4.60091 1.40581 2.31141
upperback 0.859619 1.62228 3.4886
thorax 3.43231 0.818081 2.42677
lowerneck -20.0307 -4.62945 -13.1399
upperneck 21.0548 -5.74093 13.3648
head 10.8947 -2.12903 6.2319
rclavicle 1.0635e-014 -2.50469e-014
rhumerus -23.7471 20.5944 -83.5132
rradius 43.7809
rwrist -19.1217
rhand -30.2628 -22.3227
rfingers 7.12502
rthumb -3.57122 -52.2725
lclavicle 1.0635e-014 -2.50469e-014
lhumerus -45.7963 0.611474 82.977
lradius 20.3048
lwrist -4.02009
lhand -10.0394 -24.382
lfingers 7.12502
lthumb 15.9457 4.98157
rfemur 1.7375 3.06025 31.8404
rtibia 12.9996
rfoot -15.0518 1.36068
rtoes -15.8754
lfemur -37.1977 6.21853 -15.0563
ltibia 27.5721
lfoot -10.7626 9.49188
ltoes -13.4967
338
root 9.04445 17.2304 17.3992 6.41674 -2.39503 -5.86788
lowerback -4.63041 1.42942 2.52942
upperback 0.719746 1.64431 3.52237
thorax 3.30904 0.832579 2.33879
lowerneck -19.5517 -4.47788 -13.1337
upperneck 20.8197 -5.60567 13.5223
head 10.7001 -2.06406 6.30044
rclavicle 9.93923e-016 4.69132e-014
rhumerus -23.6991 20.7707 -83.5895
rradius 44.144
rwrist -19.2401
rhand -30.4237 -22.3603
rfingers 7.12502
rthumb -3.72659 -52.3075
lclavicle 9.93923e-016 4.69132e-014
lhumerus -46.4618 1.5901 81.9587
lradius 19.9399
lwrist -4.93099
lhand -9.99465 -24.2729
lfingers 7.12502
lthumb 15.9888 5.08723
rfemur 3.03699 3.36859 31.9751
rtibia 11.3191
rfoot -14.1117 1.39581
rtoes -14.2708
lfemur -37.0562 5.38486 -14.3939
ltibia 25.3362
lfoot -11.6025 9.55858
ltoes -14.8163
339
root 9.06373 17.2284 17.5517 6.62345 -2.38457 -5.97807
lowerback -4.55922 1.46502 2.68794
upperback 0.476111 1.69736 3.51471
thorax 3.02079 0.860917 2.2377
lowerneck -19.2133 -4.444 -13.1309
upperneck 20.7342 -5.6049 13.5712
head 10.6055 -2.06899 6.31363
rclavicle -5.56597e-015 5.1684e-015
rhumerus -23.9188 20.7084 -83.5827
rradius 44.7337
rwrist -19.3434
rhand -31.1081 -23.4549
rfingers 7.12502
rthumb -4.38751 -53.3895
lclavicle -5.56597e-015 5.1684e-015
lhumerus -47.0389 2.1407 81.2106
lradius 19.4555
lwrist -5.87879
lhand -9.86079 -23.7214
lfingers 7.12502
lthumb 16.1177 5.62835
rfemur 4.25937 3.21 31.9542
rtibia 9.49572
rfoot -13.1124 1.52272
rtoes -14.623
lfemur -37.0831 4.13509 -13.711
ltibia 23.1628
lfoot -11.9598 9.71588
ltoes -14.1971
340
root 9.0857 17.2259 17.705 6.67474 -2.3186 -6.09412
lowerback -4.67581 1.49709 2.9077
upperback 0.599957 1.71504 3.53357
thorax 3.22037 0.874034 2.14247
lowerneck -19.3509 -4.52258 -13.2686
upperneck 20.6274 -5.65295 13.5981
head 10.6065 -2.09438 6.33639
rclavicle -2.44008e-014 1.27222e-014
rhumerus -23.5465 20.6115 -83.3199
rradius 45.1825
rwrist -19.387
rhand -32.2866 -24.5487
rfingers 7.12502
rthumb -5.5254 -54.4567
lclavicle -2.44008e-014 1.27222e-014
lhumerus -47.0021 3.13033 80.2995
lradius 18.9052
lwrist -7.16949
lhand -9.70358 -23.3853
lfingers 7.12502
lthumb 16.2691 5.9522
rfemur 5.71025 2.96939 31.9807
rtibia 7.57608
rfoot -12.2027 1.54183
rtoes -16.3166
lfemur -36.9094 2.51186 -12.8066
ltibia 21.1803
lfoot -11.6045 10.144
ltoes -12.9065
341
root 9.09935 17.2438 17.8596 6.67939 -2.46881 -6.05445
lowerback -4.90339 1.51488 2.80252
upperback 0.767101 1.7242 3.56211
thorax 3.51756 0.877525 2.24345
lowerneck -19.3779 -4.48589 -13.3095
upperneck 20.5405 -5.56296 13.5475
head 10.5652 -2.06089 6.33411
rclavicle 7.8023e-015 -3.93594e-014
rhumerus -23.131 20.6926 -83.1563
rradius 45.4988
rwrist -19.4817
rhand -32.4121 -24.2858
rfingers 7.12502
rthumb -5.64661 -54.1906
lclavicle 7.8023e-015 -3.93594e-014
lhumerus -47.1228 4.26191 79.4004
lradius 18.4387
lwrist -8.08179
lhand -9.76762 -23.7767
lfingers 7.12502
lthumb 16.2074 5.56575
rfemur 7.39571 2.91478 31.8245
rtibia 5.2698
rfoot -10.9907 1.43153
rtoes -17.6454
lfemur -36.6667 0.998731 -12.0187
ltibia 19.5173
lfoot -11.261 10.9403
ltoes -11.5892
342
root 9.10618 17.258 18.0099 6.74014 -2.76174 -6.3355
lowerback -4.74491 1.56271 2.8413
upperback 0.546491 1.79866 3.73991
thorax 3.1943 0.912497 2.40073
lowerneck -18.938 -4.36227 -13.3757
upperneck 20.6143 -5.43597 13.5736
head 10.4896 -2.01985 6.3767
rclavicle 3.16565e-014 8.74653e-015
rhumerus -23.4584 21.1168 -83.2353
rradius 45.911
rwrist -19.812
rhand -31.741 -23.6612
rfingers 7.12502
rthumb -4.9987 -53.5823
lclavicle 3.16565e-014 8.74653e-015
lhumerus -47.9509 5.04231 78.7378
lradius 18.1925
lwrist -8.50655
lhand -9.40613 -23.7801
lfingers 7.12502
lthumb 16.5555 5.53369
rfemur 10.4968 3.04336 32.0386
rtibia -3.18055e-014
rfoot -8.17287 1.07553
rtoes -17.896
lfemur -36.5949 -0.304754 -10.852
ltibia 18.2756
lfoot -11.2805 12.1089
ltoes -11.9921
343
root 9.11865 17.2594 18.1681 6.76497 -3.036 -6.87665
lowerback -4.76061 1.71628 3.32967
upperback 0.774532 1.95719 3.8836
thorax 3.44857 1.00021 2.29588
lowerneck -19.6537 -4.52171 -13.605
upperneck 20.7046 -5.58958 13.8906
head 10.703 -2.05031 6.5239
rclavicle -2.73329e-015 -2.82274e-014
rhumerus -22.7711 21.1559 -82.9727
rradius 46.0779
rwrist -20.0451
rhand -31.8815 -23.6935
rfingers 7.12502
rthumb -5.13427 -53.6113
lclavicle -2.73329e-015 -2.82274e-014
lhumerus -47.7525 5.34086 78.4383
lradius 17.893
lwrist -8.63654
lhand -8.95763 -23.2932
lfingers 7.12502
lthumb 16.9872 5.98396
rfemur 11.0868 3.1736 32.4598
rtibia -2.54444e-014
rfoot -7.87348 1.34233
rtoes -17.2601
lfemur -36.5426 -1.43352 -9.5099
ltibia 17.4414
lfoot -11.5055 13.4397
ltoes -13.9358
344
root 9.15024 17.2584 18.3552 6.31328 -3.49651 -6.66745
lowerback -4.76036 1.82198 3.29263
upperback 1.14134 2.0874 3.72209
thorax 3.83168 1.0685 2.17028
lowerneck -19.7674 -4.45474 -13.3941
upperneck 20.5241 -5.51623 13.8404
head 10.6391 -2.00074 6.47081
rclavicle 1.963e-014 4.77083e-014
rhumerus -22.261 21.319 -82.96
rradius 46.2016
rwrist -20.2904
rhand -32.547 -23.9712
rfingers 7.12502
rthumb -5.77684 -53.8724
lclavicle 1.963e-014 4.77083e-014
lhumerus -47.7388 5.77752 77.8491
lradius 17.3893
lwrist -9.38923
lhand -9.372 -23.4234
lfingers 7.12502
lthumb 16.5883 5.88759
rfemur 12.2081 3.32969 31.9808
rtibia 0
rfoot -7.70555 1.57987
rtoes -17.2714
lfemur -35.9183 -2.89434 -9.08206
ltibia 17.0725
lfoot -12.3163 15.1633
ltoes -13.5787
345
root 9.18108 17.2549 18.5205 6.18508 -3.53952 -6.41084
lowerback -4.72201 1.72896 3.09841
upperback 1.13736 1.98107 3.63286
thorax 3.80311 1.01223 2.17586
lowerneck -19.3883 -4.2223 -12.9281
upperneck 20.2632 -5.23793 13.381
head 10.3986 -1.8984 6.24081
rclavicle 3.17062e-014 2.06736e-014
rhumerus -22.3937 21.7176 -83.136
rradius 46.6067
rwrist -20.4812
rhand -32.9303 -24.2089
rfingers 7.12502
rthumb -6.14692 -54.0997
lclavicle 3.17062e-014 2.06736e-014
lhumerus -48.2021 6.83916 76.8432
lradius 16.8657
lwrist -10.8542
lhand -9.97556 -23.6413
lfingers 7.12502
lthumb 16.0072 5.71738
rfemur 12.8037 3.14187 31.5328
rtibia 1.27222e-014
rfoot -7.5239 1.68935
rtoes -19.5498
lfemur -35.819 -3.91474 -9.0699
ltibia 16.88
lfoot -12.9433 16.0717
ltoes -12.5521
346
root 9.20468 17.2477 18.6798 6.36858 -3.64568 -6.82991
lowerback -4.81267 1.81097 3.59137
upperback 1.06473 2.0546 3.7112
thorax 3.79355 1.05829 1.98936
lowerneck -19.139 -4.19959 -13.0017
upperneck 20.0405 -5.19608 13.3948
head 10.2675 -1.89104 6.25424
rclavicle 6.55989e-015 7.15625e-015
rhumerus -22.5638 21.625 -83.195
rradius 46.9696
rwrist -20.4514
rhand -32.8489 -24.005
rfingers 7.12502
rthumb -6.06831 -53.8981
lclavicle 6.55989e-015 7.15625e-015
lhumerus -48.4628 7.51596 76.1053
lradius 16.5103
lwrist -11.873
lhand -10.2179 -23.7303
lfingers 7.12502
lthumb 15.7738 5.64699
rfemur 13.2103 3.13049 31.8293
rtibia -2.8625e-014
rfoot -7.18002 1.98373
rtoes -21.1561
lfemur -36.0095 -4.38715 -8.39931
ltibia 16.7616
lfoot -12.9194 16.6797
ltoes -12.5408
347
root 9.21958 17.2387 18.8537 6.52479 -3.98502 -6.98541
lowerback -5.06069 1.97247 3.72606
upperback 1.15277 2.2424 3.66949
thorax 4.03115 1.15667 1.89975
lowerneck -19.3403 -4.26717 -13.0859
upperneck 19.9526 -5.28928 13.6201
head 10.2988 -1.9091 6.33816
rclavicle -1.44616e-014 2.54444e-014
rhumerus -22.3574 21.5123 -83.2668
rradius 47.0184
rwrist -20.579
rhand -32.7613 -23.573
rfingers 7.12502
rthumb -5.9838 -53.4685
lclavicle -1.44616e-014 2.54444e-014
lhumerus -48.3841 8.02019 75.4018
lradius 16.1877
lwrist -12.6341
lhand -10.1386 -24.2007
lfingers 7.12502
lthumb 15.8502 5.1705
rfemur 13.7793 3.32345 31.8031
rtibia 3.18055e-014
rfoot -6.87945 2.52057
rtoes -21.3231
lfemur -36.0073 -4.29133 -8.25248
ltibia 16.7846
lfoot -12.6311 16.8763
ltoes -12.4727
348
root 9.22417 17.2221 19.0283 6.40942 -4.30956 -7.04777
lowerback -4.96037 1.97591 3.51346
upperback 1.1565 2.26635 3.69151
thorax 3.96861 1.16314 2.03897
lowerneck -19.1924 -4.09324 -12.8166
upperneck 19.8699 -5.12868 13.59
head 10.2072 -1.82205 6.29921
rclavicle -8.99501e-015 -5.52621e-014
rhumerus -22.433 21.6935 -83.5906
rradius 47.0869
rwrist -20.5219
rhand -33.158 -23.88
rfingers 7.12502
rthumb -6.36674 -53.7643
lclavicle -8.99501e-015 -5.52621e-014
lhumerus -48.7247 8.62684 74.6399
lradius 16.0057
lwrist -13.075
lhand -9.86631 -24.3149
lfingers 7.12502
lthumb 16.1124 5.0353
rfemur 14.5447 3.43056 31.7513
rtibia -9.54166e-015
rfoot -6.59957 2.93485
rtoes -21.8012
lfemur -35.6971 -3.40413 -8.66537
ltibia 17.0673
lfoot -12.5931 16.2707
ltoes -12.028
349
root 9.28139 17.208 19.1847 6.61367 -3.98836 -6.86232
lowerback -4.91359 1.8687 3.75049
upperback 0.859733 2.13128 3.54382
thorax 3.64931 1.09956 1.73112
lowerneck -18.5976 -3.92922 -12.7823
upperneck 19.677 -4.98464 13.6935
head 10.0055 -1.76103 6.34187
rclavicle 1.48592e-014 4.65156e-014
rhumerus -22.9309 21.4975 -83.8464
rradius 47.2573
rwrist -20.1169
rhand -33.2699 -24.5814
rfingers 7.12502
rthumb -6.47473 -54.4624
lclavicle 1.48592e-014 4.65156e-014
lhumerus -49.2481 8.85628 74.1856
lradius 15.8977
lwrist -13.2774
lhand -9.5602 -24.0363
lfingers 7.12502
lthumb 16.4071 5.28981
rfemur 14.8604 2.99575 31.2209
rtibia 6.36111e-015
rfoot -6.33504 3.29163
rtoes -22.1364
lfemur -35.8232 -2.3241 -9.96185
ltibia 17.3833
lfoot -12.2435 14.845
ltoes -12.1461
